<svg viewBox="0 0 60 60" xmlns="http://www.w3.org/2000/svg"><path fill-rule="evenodd" clip-rule="evenodd" d="M30 0C46.5674 0 60 13.4304 60 30C60 46.5696 46.5674 60 30 60C13.4326 60 0 46.5674 0 30C1.88186e-06 13.4326 13.4326 1.88173e-06 30 0ZM54.7021 22.7295C53.944 27.9874 51.2712 32.3263 49.0413 35.1497C45.5999 39.3891 40.9892 43.0593 35.6982 45.7715C30.4648 48.4549 24.8036 50.0848 19.3278 50.485C18.401 50.5383 17.5402 50.5648 16.7334 50.5648C15.7732 50.5648 14.888 50.5264 14.0479 50.4508C18.4387 53.8902 23.9711 55.9408 29.9805 55.9408L29.9772 55.9375C44.2613 55.9375 55.8431 44.3574 55.8431 30.0732C55.8431 27.5944 55.4935 25.1979 54.8421 22.9281C54.7954 22.8614 54.7488 22.794 54.7021 22.7295ZM33.68 2.736C24.843 2.736 16.8101 6.38031 12.1924 12.4805L12.1631 12.5163C10.1668 14.9482 8.83989 17.6163 8.32845 20.2327C8.03721 21.8246 8.09103 23.2866 8.49121 24.5605V24.5573C9.44051 27.4074 11.7496 29.6931 14.3685 30.3646C15.4578 30.6358 16.5051 30.7492 17.4788 30.7048L17.736 30.682C24.3567 30.1484 30.2606 25.9758 35.1628 21.9629C38.2307 19.3951 41.1652 15.9979 41.3542 13.8037C37.0768 15.8779 32.6611 18.5767 27.57 22.2249C27.0053 22.6273 26.2356 22.5147 25.8154 21.9678C23.2877 18.6952 21.0866 16.0377 18.8835 13.61C18.6437 13.3433 18.5241 12.9857 18.5596 12.6302C18.5929 12.2745 18.7773 11.9452 19.0641 11.7318C25.8136 6.66968 32.5275 3.80141 39.0413 3.19661C37.2942 2.8899 35.5027 2.73604 33.68 2.736Z" fill="url(#paint0_linear_3685_1546)"/><defs><linearGradient id="paint0_linear_3685_1546" x1="30" y1="0" x2="30" y2="60" gradientUnits="userSpaceOnUse"><stop stop-color="#70518E"/><stop offset="1" stop-color="#332640"/></linearGradient></defs></svg>