<svg width="560" height="130" viewBox="0 0 560 130" fill="none" xmlns="http://www.w3.org/2000/svg" role="img" aria-label="Assemblix">
  <g transform="translate(8,16) scale(1.92)">
    <rect width="51" height="51" rx="12" fill="#6366F1"/>
    <path d="M20.5 10H13.5C11.567 10 10 11.567 10 13.5V20.5C10 22.433 11.567 24 13.5 24H20.5C22.433 24 24 22.433 24 20.5V13.5C24 11.567 22.433 10 20.5 10Z" stroke="white" stroke-width="4" stroke-linecap="round" stroke-linejoin="round"/>
    <path d="M17 24V30.6667C17 31.5507 17.3512 32.3986 17.9763 33.0237C18.6014 33.6488 19.4493 34 20.3333 34H27" stroke="white" stroke-width="4" stroke-linecap="round" stroke-linejoin="round"/>
    <path d="M37.5 27H30.5C28.567 27 27 28.567 27 30.5V37.5C27 39.433 28.567 41 30.5 41H37.5C39.433 41 41 39.433 41 37.5V30.5C41 28.567 39.433 27 37.5 27Z" stroke="white" stroke-width="4" stroke-linecap="round" stroke-linejoin="round"/>
  </g>
  <text x="126" y="86" font-family="-apple-system, BlinkMacSystemFont, 'Segoe UI', Helvetica, Arial, sans-serif" font-size="64" font-weight="700" fill="#6366F1" letter-spacing="-1.5">Assemblix</text>
</svg>
